<svg width="9" height="10" viewBox="0 0 9 10" fill="none" xmlns="http://www.w3.org/2000/svg">
<path d="M6.88931 4.82341H2.71754L3.99439 3.28978C4.0541 3.21794 4.08282 3.12533 4.07425 3.03232C4.06567 2.93931 4.0205 2.85351 3.94867 2.79381C3.87683 2.7341 3.78422 2.70538 3.69121 2.71395C3.5982 2.72253 3.5124 2.7677 3.4527 2.83953L1.69394 4.95004C1.68211 4.96683 1.67153 4.98446 1.66228 5.0028C1.66228 5.02039 1.66228 5.03094 1.63766 5.04853C1.62172 5.08886 1.61337 5.1318 1.61304 5.17516C1.61337 5.21853 1.62172 5.26146 1.63766 5.30179C1.63766 5.31938 1.63766 5.32993 1.66228 5.34752C1.67153 5.36586 1.68211 5.3835 1.69394 5.40028L3.4527 7.51079C3.48577 7.5505 3.52718 7.58243 3.574 7.60432C3.62081 7.6262 3.67187 7.63751 3.72354 7.63742C3.80573 7.63758 3.88538 7.60896 3.94867 7.55652C3.98428 7.52699 4.01373 7.49072 4.03531 7.4498C4.05689 7.40887 4.07018 7.36409 4.07443 7.31802C4.07868 7.27195 4.07379 7.22549 4.06006 7.18131C4.04633 7.13713 4.02401 7.09609 3.99439 7.06055L2.71754 5.52691H6.88931C6.9826 5.52691 7.07207 5.48985 7.13803 5.42389C7.204 5.35792 7.24106 5.26845 7.24106 5.17516C7.24106 5.08187 7.204 4.9924 7.13803 4.92644C7.07207 4.86047 6.9826 4.82341 6.88931 4.82341Z" fill="#F53838"/>
</svg>
