<svg width="10" height="10" viewBox="0 0 10 10" fill="none" xmlns="http://www.w3.org/2000/svg">
<path d="M2.47715 4.82341H6.64892L5.37206 3.28978C5.31236 3.21794 5.28363 3.12533 5.29221 3.03232C5.30078 2.93931 5.34596 2.85351 5.41779 2.79381C5.48962 2.7341 5.58223 2.70538 5.67524 2.71395C5.76826 2.72253 5.85405 2.7677 5.91376 2.83953L7.67252 4.95004C7.68435 4.96683 7.69493 4.98446 7.70417 5.0028C7.70417 5.02039 7.70417 5.03094 7.7288 5.04853C7.74474 5.08886 7.75309 5.1318 7.75342 5.17516C7.75309 5.21853 7.74474 5.26146 7.7288 5.30179C7.7288 5.31938 7.7288 5.32993 7.70417 5.34752C7.69493 5.36586 7.68435 5.3835 7.67252 5.40028L5.91376 7.51079C5.88069 7.5505 5.83927 7.58243 5.79246 7.60432C5.74565 7.6262 5.69459 7.63751 5.64291 7.63742C5.56072 7.63758 5.48107 7.60896 5.41779 7.55652C5.38217 7.52699 5.35273 7.49072 5.33115 7.4498C5.30957 7.40887 5.29627 7.36409 5.29203 7.31802C5.28778 7.27195 5.29266 7.22549 5.30639 7.18131C5.32013 7.13713 5.34244 7.09609 5.37206 7.06055L6.64892 5.52691H2.47715C2.38386 5.52691 2.29439 5.48985 2.22842 5.42389C2.16246 5.35792 2.1254 5.26845 2.1254 5.17516C2.1254 5.08187 2.16246 4.9924 2.22842 4.92644C2.29439 4.86047 2.38386 4.82341 2.47715 4.82341Z" fill="white"/>
</svg>
