<svg width="28" height="16" viewBox="0 0 28 16" fill="none" xmlns="http://www.w3.org/2000/svg">
<path fill-rule="evenodd" clip-rule="evenodd" d="M15.8564 4.4206C20.7169 -0.0695244 25.3265 0.698125 27.0238 1.64322C28.0059 4.24386 27.0238 11.8434 21.6029 12.5172C17.2663 13.0562 15.78 9.70336 15.579 7.95959C14.7546 7.29378 14.2071 7.8677 14.0364 8.23788C14.179 13.0842 10.2829 16.3625 6.10184 15.6023C2.75695 14.9942 1.30082 11.6517 0.99086 10.0565H0.299255V7.22081C4.65488 2.95593 10.6724 4.0013 13.1368 5.0571C13.7848 4.54791 15.2199 4.42061 15.8564 4.4206ZM25.3946 3.04049C22.0341 2.00178 18.9635 3.78149 17.5739 5.01848C15.0471 7.43108 18.3658 13.3416 23.0027 10.8702C25.7794 9.39018 25.9929 4.80986 25.3946 3.04049ZM6.39232 6.20296C8.22739 5.60575 11.9692 5.20616 12.2559 8.38551C12.6142 12.3597 8.99836 15.2915 5.83855 13.7279C3.55073 12.5957 2.61357 10.2749 2.61357 8.80898C2.61357 7.63627 5.13274 6.58301 6.39232 6.20296Z" fill="#111111"/>
</svg>
