<svg width="32" height="11" viewBox="0 0 32 11" fill="none" xmlns="http://www.w3.org/2000/svg">
<path fill-rule="evenodd" clip-rule="evenodd" d="M13.2877 2.30722C9.15584 -1.32144 5.42361 0.213902 3.21213 1.12364L3.21212 1.12365C2.96621 1.22481 2.73909 1.31824 2.53233 1.39597L1.14763 1.39854C0.886869 1.39903 0.676388 1.61178 0.678699 1.87253L0.689016 3.03656C0.691302 3.2944 0.900969 3.50222 1.15882 3.50222L2.15996 3.50223C1.43493 9.72782 6.02598 11.3939 9.69771 10.2717C12.9713 9.27123 13.8476 6.44046 14.0227 4.66457C14.723 3.11298 17.7929 3.82985 17.9145 4.63008L17.9238 4.69299C18.0679 5.66738 18.7939 10.5762 24.3205 10.5831C28.8473 10.5888 30.075 6.54465 30.123 4.52187L31.2948 4.51148C31.5543 4.50918 31.7627 4.29698 31.7604 4.03751L31.7478 2.61344C31.7455 2.35397 31.5333 2.1455 31.2738 2.1478L30.1021 2.15818C27.1533 -0.82906 20.8193 -0.549278 18.5883 2.26023C16.1268 1.69256 14.0289 2.05502 13.2877 2.30722ZM7.65087 9.77494C5.11724 9.77494 3.84144 7.77825 3.51725 6.88669C3.1444 6.14101 2.84995 4.19828 3.73272 2.65519C4.85519 0.693087 10.1311 0.145916 11.9791 2.9179C13.8271 5.68989 11.9791 9.77494 7.65087 9.77494ZM28.5722 6.88667C28.248 7.77823 26.9722 9.77492 24.4386 9.77492C20.1104 9.77492 18.2624 5.68987 20.1104 2.91788C21.9583 0.145889 27.2342 0.69306 28.3567 2.65516C29.2395 4.19825 28.945 6.14098 28.5722 6.88667Z" fill="#111111"/>
</svg>
