<svg width="107" height="28" viewBox="0 0 107 28" fill="none" xmlns="http://www.w3.org/2000/svg">
<path d="M0.662474 15.9734C3.4811 28.5347 20.2194 28.5603 28.2362 27.0029L90.0303 18.0752C90.827 18.7669 92.7346 20.5911 93.9924 22.3535C95.2502 24.1159 96.4032 22.877 96.8224 22.0372C98.6337 23.9994 99.9669 23.0657 100.407 22.3535C101.967 24.3172 103.279 23.6317 103.74 23.0434C105.904 24.6534 106.45 23.2543 106.452 22.3535C103.501 16.1037 98.2061 9.83944 95.9275 7.48853L80.52 8.89908L30.4574 3.79504C20.9598 -2.86859 -2.86081 0.271738 0.662474 15.9734Z" fill="url(#paint0_linear_643_2748)"/>
<defs>
<linearGradient id="paint0_linear_643_2748" x1="53.3812" y1="-16.4209" x2="53.3812" y2="22.9816" gradientUnits="userSpaceOnUse">
<stop offset="0.0677966" stop-color="#FFEFE0"/>
<stop offset="1" stop-color="#FFBE99"/>
</linearGradient>
</defs>
</svg>
