<svg width="11" height="11" viewBox="0 0 11 11" fill="none" xmlns="http://www.w3.org/2000/svg">
<path d="M5.39422 0.942383C2.78325 0.942383 0.666687 3.05894 0.666687 5.66992C0.666687 8.2809 2.78325 10.3975 5.39422 10.3975C8.0052 10.3975 10.1218 8.2809 10.1218 5.66992C10.1218 3.05894 8.0052 0.942383 5.39422 0.942383ZM7.31725 4.81502C7.31922 4.85541 7.31971 4.89579 7.31971 4.93518C7.31971 6.16631 6.38356 7.58507 4.67081 7.58507C4.16472 7.58591 3.66915 7.44055 3.24369 7.16648C3.31608 7.17535 3.39044 7.17879 3.46578 7.17879C3.9021 7.17879 4.30344 7.03057 4.62206 6.7804C4.42789 6.77659 4.23976 6.71229 4.08386 6.59648C3.92797 6.48066 3.8121 6.3191 3.75239 6.1343C3.89183 6.16082 4.03548 6.15526 4.17245 6.11805C3.96171 6.07544 3.77219 5.96124 3.63603 5.79484C3.49987 5.62843 3.42545 5.42006 3.4254 5.20505V5.19372C3.55098 5.26316 3.69477 5.30551 3.84743 5.31043C3.64986 5.17891 3.51 4.97688 3.45645 4.74565C3.4029 4.51443 3.43971 4.27148 3.55935 4.0665C3.79324 4.35409 4.08492 4.58936 4.41551 4.75707C4.7461 4.92478 5.10822 5.0212 5.47843 5.04007C5.43137 4.84029 5.45162 4.63055 5.53606 4.44347C5.62049 4.25639 5.76436 4.10244 5.94531 4.00556C6.12626 3.90869 6.33415 3.8743 6.53666 3.90777C6.73917 3.94123 6.92495 4.04066 7.06511 4.19059C7.2735 4.14936 7.47335 4.07293 7.65606 3.96456C7.5866 4.18032 7.44119 4.36353 7.24683 4.48016C7.43142 4.45792 7.61167 4.4083 7.78163 4.33291C7.65679 4.51999 7.49952 4.68326 7.31725 4.81502Z" fill="white"/>
</svg>
