<svg width="16" height="23" viewBox="0 0 16 23" fill="none" xmlns="http://www.w3.org/2000/svg">
<path d="M13.7167 11.6853C14.2844 11.6853 14.8287 11.9108 15.2301 12.3121C15.6315 12.7135 15.857 13.2579 15.857 13.8255V20.2462C15.857 20.8139 15.6315 21.3582 15.2301 21.7596C14.8287 22.161 14.2844 22.3865 13.7167 22.3865H3.01554C2.44792 22.3865 1.90354 22.161 1.50217 21.7596C1.10079 21.3582 0.875305 20.8139 0.875305 20.2462V13.8255C0.875305 13.2579 1.10079 12.7135 1.50217 12.3121C1.90354 11.9108 2.44792 11.6853 3.01554 11.6853V6.33468C3.01554 4.91562 3.57927 3.55467 4.5827 2.55124C5.58613 1.54781 6.94707 0.984085 8.36614 0.984085C9.78521 0.984085 11.1462 1.54781 12.1496 2.55124C13.153 3.55467 13.7167 4.91562 13.7167 6.33468V11.6853ZM8.36614 19.1761C8.93377 19.1761 9.47814 18.9506 9.87952 18.5493C10.2809 18.1479 10.5064 17.6035 10.5064 17.0359C10.5064 16.4682 10.2809 15.9239 9.87952 15.5225C9.47814 15.1211 8.93377 14.8956 8.36614 14.8956C7.79851 14.8956 7.25414 15.1211 6.85276 15.5225C6.45139 15.9239 6.2259 16.4682 6.2259 17.0359C6.2259 17.6035 6.45139 18.1479 6.85276 18.5493C7.25414 18.9506 7.79851 19.1761 8.36614 19.1761ZM11.5765 11.6853V6.33468C11.5765 5.48324 11.2383 4.66667 10.6362 4.06462C10.0341 3.46256 9.21758 3.12432 8.36614 3.12432C7.5147 3.12432 6.69813 3.46256 6.09607 4.06462C5.49401 4.66667 5.15578 5.48324 5.15578 6.33468V11.6853H11.5765Z" fill="url(#paint0_linear_643_2789)"/>
<defs>
<linearGradient id="paint0_linear_643_2789" x1="8.36614" y1="0.984085" x2="8.36614" y2="22.3865" gradientUnits="userSpaceOnUse">
<stop stop-color="#FFD5B7"/>
<stop offset="1" stop-color="#FFAB6D"/>
</linearGradient>
</defs>
</svg>
