<svg width="11" height="11" viewBox="0 0 11 11" fill="none" xmlns="http://www.w3.org/2000/svg">
<path d="M6.95471 5.66992C6.95471 6.06174 6.79906 6.43751 6.522 6.71457C6.24495 6.99163 5.86917 7.14728 5.47735 7.14728C5.08554 7.14728 4.70976 6.99163 4.43271 6.71457C4.15565 6.43751 4 6.06174 4 5.66992C4 5.58571 4.00886 5.50347 4.02413 5.42369H3.50755V7.39202C3.50755 7.52893 3.61835 7.63973 3.75525 7.63973H7.19995C7.26556 7.6396 7.32844 7.61344 7.37479 7.567C7.42113 7.52056 7.44716 7.45763 7.44716 7.39202V5.42369H6.93058C6.94585 5.50347 6.95471 5.58571 6.95471 5.66992ZM5.47735 6.65482C5.60673 6.65479 5.73482 6.62928 5.85434 6.57974C5.97385 6.5302 6.08243 6.45761 6.17389 6.36611C6.26535 6.2746 6.33788 6.16598 6.38736 6.04645C6.43684 5.92691 6.46229 5.7988 6.46226 5.66943C6.46223 5.54006 6.43671 5.41196 6.38717 5.29245C6.33764 5.17293 6.26504 5.06435 6.17354 4.97289C6.08204 4.88144 5.97342 4.8089 5.85388 4.75942C5.73434 4.70994 5.60623 4.68449 5.47686 4.68452C5.21558 4.68459 4.96503 4.78844 4.78033 4.97324C4.59562 5.15804 4.49189 5.40864 4.49196 5.66992C4.49202 5.9312 4.59588 6.18175 4.78068 6.36645C4.96547 6.55116 5.21608 6.65489 5.47735 6.65482ZM6.65924 4.63577H7.24969C7.28892 4.63577 7.32654 4.62022 7.35433 4.59253C7.38211 4.56484 7.39779 4.52726 7.39792 4.48804V3.89759C7.39792 3.85827 7.3823 3.82057 7.3545 3.79277C7.3267 3.76498 7.289 3.74936 7.24969 3.74936H6.65924C6.61993 3.74936 6.58222 3.76498 6.55443 3.79277C6.52663 3.82057 6.51101 3.85827 6.51101 3.89759V4.48804C6.5115 4.56929 6.57798 4.63577 6.65924 4.63577ZM5.47735 0.942383C4.22353 0.942383 3.02107 1.44046 2.13448 2.32705C1.2479 3.21363 0.749817 4.4161 0.749817 5.66992C0.749817 6.92374 1.2479 8.12621 2.13448 9.01279C3.02107 9.89938 4.22353 10.3975 5.47735 10.3975C6.09818 10.3975 6.71293 10.2752 7.2865 10.0376C7.86008 9.80001 8.38124 9.45179 8.82023 9.01279C9.25922 8.5738 9.60745 8.05264 9.84503 7.47907C10.0826 6.9055 10.2049 6.29075 10.2049 5.66992C10.2049 5.04909 10.0826 4.43434 9.84503 3.86077C9.60745 3.2872 9.25922 2.76604 8.82023 2.32705C8.38124 1.88805 7.86008 1.53983 7.2865 1.30225C6.71293 1.06466 6.09818 0.942383 5.47735 0.942383ZM7.93961 7.58507C7.93961 7.88595 7.69339 8.13218 7.3925 8.13218H3.56221C3.26132 8.13218 3.0151 7.88595 3.0151 7.58507V3.75478C3.0151 3.45389 3.26132 3.20766 3.56221 3.20766H7.3925C7.69339 3.20766 7.93961 3.45389 7.93961 3.75478V7.58507Z" fill="white"/>
</svg>
