<svg width="43" height="78" viewBox="0 0 43 78" fill="none" xmlns="http://www.w3.org/2000/svg">
<path d="M19.3926 66.9679C16.6011 75.9822 12.7532 77.5572 11.1781 77.2179C-5.40039 66.1243 1.71859 54.7564 7.35039 50.4592L22.03 20.2348C19.9048 18.5729 17.5367 13.3734 17.7796 10.0945C17.9739 7.47134 19.7631 7.38353 20.6334 7.66752C20.8763 4.94945 22.8396 5.03596 23.7909 5.41898C24.6167 2.45581 27.0091 3.09137 28.1021 3.77955C28.2478 -0.300882 31.0774 0.257766 32.474 1.04714L34.9254 7.66752C35.9269 7.80655 38.2499 8.12822 39.5293 8.30269C41.1286 8.52078 43.1641 8.81155 42.1463 11.0651C41.3321 12.868 37.203 19.0374 35.2403 21.8967C31.1209 33.1645 22.1842 57.9537 19.3926 66.9679Z" fill="url(#paint0_linear_643_2749)"/>
<defs>
<linearGradient id="paint0_linear_643_2749" x1="7.29728" y1="-4.25155" x2="45.5343" y2="40.4984" gradientUnits="userSpaceOnUse">
<stop stop-color="#FFEFE0"/>
<stop offset="1" stop-color="#FFBE99"/>
</linearGradient>
</defs>
</svg>
